<svg width="22" height="22" viewBox="0 0 22 22" fill="none" xmlns="http://www.w3.org/2000/svg">
<path fill-rule="evenodd" clip-rule="evenodd" d="M0.417965 8.07217C0.431825 7.87493 0.503844 7.68623 0.62492 7.52991C0.745997 7.37359 0.910696 7.25668 1.0982 7.19394L20.1901 0.829979C20.3664 0.770957 20.5557 0.762259 20.7367 0.80486C20.9176 0.847461 21.0832 0.939677 21.2146 1.07115C21.3461 1.20262 21.4383 1.36814 21.4809 1.54913C21.5235 1.73011 21.5148 1.91939 21.4558 2.0957L15.0918 21.1876C15.0293 21.3753 14.9125 21.5403 14.7563 21.6616C14.6 21.7829 14.4112 21.8551 14.2139 21.8691C14.0165 21.8831 13.8194 21.8383 13.6476 21.7402C13.4757 21.6422 13.3368 21.4954 13.2484 21.3184L9.62662 14.0734L13.4358 10.2642C13.6233 10.0767 13.7287 9.82231 13.7287 9.55709C13.7287 9.29187 13.6233 9.03752 13.4358 8.84998C13.2483 8.66245 12.9939 8.55709 12.7287 8.55709C12.4635 8.55709 12.2091 8.66245 12.0216 8.84998L8.2124 12.6592L0.96668 9.03807C0.789956 8.94951 0.643445 8.81055 0.545656 8.63876C0.447867 8.46697 0.403893 8.26934 0.417965 8.07217Z" fill="black"/>
</svg>
