<svg width="60" height="60" viewBox="0 0 60 60" fill="none" xmlns="http://www.w3.org/2000/svg">
<g clip-path="url(#clip0_8_114)">
<path d="M46.425 23.585C44.7159 23.0469 43.8337 23.2283 42.0417 23.0319C39.2714 22.7296 38.1675 21.6449 37.6992 18.8539C37.4372 17.2958 37.7465 15.0144 37.0776 13.6021C35.7984 10.9086 32.805 9.70065 29.7979 10.3902C27.2587 10.9733 25.1461 13.5149 25.0289 16.1239C24.8953 19.1028 26.5898 21.6449 29.4993 22.5224C30.8822 22.9396 32.3508 23.1496 33.7945 23.256C36.4425 23.4496 36.6459 24.9238 37.3617 26.1374C37.8136 26.9024 38.2509 27.6561 38.2509 29.9375C38.2509 32.2189 37.8108 32.9722 37.3622 33.7372C36.6459 34.948 35.7623 35.7411 33.1143 35.9371C31.6706 36.0439 30.1987 36.2539 28.8197 36.6716C25.9097 37.5514 24.2151 40.0902 24.3487 43.0696C24.4659 45.6786 26.5786 48.2202 29.1178 48.8033C32.1248 49.4952 35.1183 48.2849 36.3975 45.5914C37.0692 44.1791 37.4372 42.5788 37.6992 41.0211C38.1703 38.2297 39.2742 37.145 42.0417 36.8422C43.8337 36.6463 45.6886 36.8422 47.3681 35.8869C49.1423 34.5885 50.7281 32.6385 50.7281 29.9375C50.7281 27.2357 49.0195 24.4035 46.425 23.585Z" fill="#F44250"/>
<path d="M18 36.2686C14.5078 36.2686 11.6588 33.4101 11.6588 29.9053C11.6588 26.4004 14.5074 23.5425 17.9995 23.5425C21.4917 23.5425 24.3408 26.4009 24.3408 29.9053C24.3408 33.4069 21.4894 36.2686 17.9995 36.2686H18ZM6.31877 49.2C2.83127 49.1915 -0.00841875 46.3219 1.87541e-05 42.8142C0.00845625 39.3126 2.8683 36.4626 6.3633 36.4739C9.85267 36.4823 12.6928 39.352 12.682 42.8592C12.6736 46.3579 9.8133 49.2084 6.31877 49.2ZM53.4338 49.2C49.936 49.2192 47.0653 46.3804 47.0452 42.8845C47.026 39.3745 49.8549 36.4936 53.3386 36.4739C56.8364 36.4542 59.7075 39.2929 59.7272 42.7889C59.7464 46.2961 56.9175 49.1803 53.4338 49.2Z" fill="#CFCFCF"/>
</g>
<defs>
<clipPath id="clip0_8_114">
<rect width="60" height="60" fill="white"/>
</clipPath>
</defs>
</svg>
