<svg width="60" height="60" viewBox="0 0 60 60" fill="none" xmlns="http://www.w3.org/2000/svg">
<g clip-path="url(#clip0_8_76)">
<path d="M27.4767 1.25264L1.25438 27.4529C0.919044 27.787 0.652969 28.1839 0.471416 28.6211C0.289863 29.0582 0.196405 29.5268 0.196405 30.0001C0.196405 30.4735 0.289863 30.9421 0.471416 31.3792C0.652969 31.8163 0.919044 32.2133 1.25438 32.5473L27.4767 58.7476C27.8112 59.0824 28.2084 59.348 28.6456 59.5291C29.0828 59.7103 29.5514 59.8036 30.0246 59.8036C30.4978 59.8036 30.9664 59.7103 31.4036 59.5291C31.8408 59.348 32.238 59.0824 32.5725 58.7476L43.568 47.7615C43.868 47.4616 44.106 47.1055 44.2684 46.7136C44.4308 46.3217 44.5144 45.9016 44.5144 45.4773C44.5144 45.0531 44.4308 44.633 44.2684 44.2411C44.106 43.8491 43.868 43.493 43.568 43.1931C42.9615 42.5871 42.1392 42.2467 41.2819 42.2467C40.4245 42.2467 39.6023 42.5871 38.9958 43.1931L30.6614 51.5204C30.3098 51.872 29.7764 51.872 29.4267 51.5204L8.48531 30.5987C8.13516 30.2472 8.13516 29.7147 8.48531 29.365L29.4267 8.44139C29.7764 8.0917 30.3094 8.0917 30.6609 8.44139L38.9958 16.7687C39.6023 17.3747 40.4245 17.7151 41.2819 17.7151C42.1392 17.7151 42.9615 17.3747 43.568 16.7687C43.868 16.4688 44.106 16.1127 44.2684 15.7208C44.4308 15.3288 44.5144 14.9088 44.5144 14.4845C44.5144 14.0603 44.4308 13.6402 44.2684 13.2482C44.106 12.8563 43.868 12.5002 43.568 12.2003L32.5744 1.21607C31.1587 -0.161114 28.8811 -0.149864 27.4767 1.25264Z" fill="url(#paint0_linear_8_76)"/>
<path d="M27.4767 1.25264L1.25438 27.4529C0.919044 27.787 0.652969 28.1839 0.471416 28.6211C0.289863 29.0582 0.196405 29.5268 0.196405 30.0001C0.196405 30.4735 0.289863 30.9421 0.471416 31.3792C0.652969 31.8163 0.919044 32.2133 1.25438 32.5473L27.4767 58.7476C27.8112 59.0824 28.2084 59.348 28.6456 59.5291C29.0828 59.7103 29.5514 59.8036 30.0246 59.8036C30.4978 59.8036 30.9664 59.7103 31.4036 59.5291C31.8408 59.348 32.238 59.0824 32.5725 58.7476L43.568 47.7615C43.868 47.4616 44.106 47.1055 44.2684 46.7136C44.4308 46.3217 44.5144 45.9016 44.5144 45.4773C44.5144 45.0531 44.4308 44.633 44.2684 44.2411C44.106 43.8491 43.868 43.493 43.568 43.1931C42.9615 42.5871 42.1392 42.2467 41.2819 42.2467C40.4245 42.2467 39.6023 42.5871 38.9958 43.1931L30.6614 51.5204C30.3098 51.872 29.7764 51.872 29.4267 51.5204L8.48531 30.5987C8.13516 30.2472 8.13516 29.7147 8.48531 29.365L29.4267 8.44139C30.3005 7.68857 31.725 6.16326 33.8194 5.80654C35.3747 5.54123 37.0752 6.12467 38.9208 7.55685C37.687 6.3231 35.5716 4.20951 32.5744 1.21607C31.1587 -0.161114 28.8811 -0.149864 27.4767 1.25264Z" fill="url(#paint1_linear_8_76)"/>
<path d="M46.1063 40.7555C46.7127 41.3613 47.5349 41.7016 48.3921 41.7016C49.2493 41.7016 50.0715 41.3613 50.678 40.7555L58.7878 32.6531C59.123 32.3192 59.3889 31.9224 59.5703 31.4855C59.7518 31.0486 59.8452 30.5802 59.8452 30.1071C59.8452 29.634 59.7518 29.1656 59.5703 28.7287C59.3889 28.2918 59.123 27.895 58.7878 27.5611L50.6067 19.4147C49.9987 18.8095 49.1755 18.4701 48.3176 18.4712C47.4597 18.4722 46.6373 18.8136 46.0308 19.4203C45.7304 19.72 45.4921 20.0761 45.3295 20.468C45.1669 20.86 45.0832 21.2802 45.0832 21.7045C45.0832 22.1289 45.1669 22.5491 45.3295 22.941C45.4921 23.333 45.7304 23.689 46.0308 23.9888L51.5573 29.5092C51.6402 29.5891 51.706 29.6848 51.751 29.7906C51.796 29.8965 51.8192 30.0104 51.8192 30.1254C51.8192 30.2404 51.796 30.3543 51.751 30.4601C51.706 30.566 51.6402 30.6617 51.5573 30.7416L46.1058 36.1889C45.8055 36.4885 45.5672 36.8444 45.4046 37.2362C45.242 37.628 45.1583 38.048 45.1583 38.4722C45.1583 38.8964 45.242 39.3164 45.4046 39.7082C45.5672 40.1 45.8059 40.4559 46.1063 40.7555Z" fill="url(#paint2_linear_8_76)"/>
<path fill-rule="evenodd" clip-rule="evenodd" d="M37.2366 30.132C37.2366 26.2245 34.0669 23.0566 30.1556 23.0566C26.2463 23.0566 23.0752 26.2245 23.0752 30.132C23.0752 34.0376 26.2463 37.2054 30.1556 37.2054C34.0669 37.2054 37.2366 34.0376 37.2366 30.132Z" fill="url(#paint3_linear_8_76)"/>
</g>
<defs>
<linearGradient id="paint0_linear_8_76" x1="27.7168" y1="0.190449" x2="52.6439" y2="15.4256" gradientUnits="userSpaceOnUse">
<stop stop-color="#4285EB"/>
<stop offset="1" stop-color="#2EC7FF"/>
</linearGradient>
<linearGradient id="paint1_linear_8_76" x1="31.0406" y1="0.190449" x2="18.7334" y2="63.8261" gradientUnits="userSpaceOnUse">
<stop stop-color="#29CDFF"/>
<stop offset="0.379" stop-color="#148EFF"/>
<stop offset="1" stop-color="#0A60FF"/>
</linearGradient>
<linearGradient id="paint2_linear_8_76" x1="55.3716" y1="15.4497" x2="39.3499" y2="40.499" gradientUnits="userSpaceOnUse">
<stop stop-color="#FA816E"/>
<stop offset="0.415" stop-color="#F74A5C"/>
<stop offset="1" stop-color="#F51D2C"/>
</linearGradient>
<linearGradient id="paint3_linear_8_76" x1="32.7191" y1="18.0061" x2="27.3893" y2="39.3161" gradientUnits="userSpaceOnUse">
<stop stop-color="#FA8E7D"/>
<stop offset="0.513" stop-color="#F74A5C"/>
<stop offset="1" stop-color="#F51D2C"/>
</linearGradient>
<clipPath id="clip0_8_76">
<rect width="60" height="60" fill="white"/>
</clipPath>
</defs>
</svg>
