<svg width="920" height="180" viewBox="0 0 920 180" fill="none" xmlns="http://www.w3.org/2000/svg">
<rect x="1" y="1" width="204" height="178" rx="11" fill="white" fill-opacity="0.06"/>
<rect x="1" y="1" width="204" height="178" rx="11" stroke="#565656" stroke-width="2"/>
<g clip-path="url(#clip0_1_151)">
<path d="M119.425 53.585C117.716 53.0469 116.834 53.2283 115.042 53.0319C112.271 52.7296 111.167 51.6449 110.699 48.8539C110.437 47.2958 110.747 45.0144 110.078 43.6021C108.798 40.9086 105.805 39.7006 102.798 40.3902C100.259 40.9733 98.1461 43.5149 98.0289 46.1239C97.8953 49.1028 99.5898 51.6449 102.499 52.5224C103.882 52.9396 105.351 53.1496 106.795 53.256C109.442 53.4496 109.646 54.9238 110.362 56.1374C110.814 56.9024 111.251 57.6561 111.251 59.9375C111.251 62.2189 110.811 62.9722 110.362 63.7372C109.646 64.948 108.762 65.7411 106.114 65.9371C104.671 66.0439 103.199 66.2539 101.82 66.6716C98.9097 67.5514 97.2151 70.0902 97.3487 73.0696C97.4659 75.6786 99.5786 78.2202 102.118 78.8033C105.125 79.4952 108.118 78.2849 109.397 75.5914C110.069 74.1791 110.437 72.5788 110.699 71.0211C111.17 68.2297 112.274 67.145 115.042 66.8422C116.834 66.6463 118.689 66.8422 120.368 65.8869C122.142 64.5885 123.728 62.6385 123.728 59.9375C123.728 57.2357 122.02 54.4035 119.425 53.585Z" fill="#F44250"/>
<path d="M91 66.2686C87.5078 66.2686 84.6588 63.4101 84.6588 59.9053C84.6588 56.4004 87.5074 53.5425 90.9995 53.5425C94.4917 53.5425 97.3408 56.4009 97.3408 59.9053C97.3408 63.4069 94.4894 66.2686 90.9995 66.2686H91ZM79.3188 79.2C75.8313 79.1915 72.9916 76.3219 73 72.8142C73.0085 69.3126 75.8683 66.4626 79.3633 66.4739C82.8527 66.4823 85.6928 69.352 85.682 72.8592C85.6736 76.3579 82.8133 79.2084 79.3188 79.2ZM126.434 79.2C122.936 79.2192 120.065 76.3804 120.045 72.8845C120.026 69.3745 122.855 66.4936 126.339 66.4739C129.836 66.4542 132.708 69.2929 132.727 72.7889C132.746 76.2961 129.918 79.1803 126.434 79.2Z" fill="#CFCFCF"/>
</g>
<path d="M41.75 130.775V131H37.825L32.725 125.15H29.55V131H26.25V113.475C29.025 113.475 31.8 113.5 34.575 113.5C38.7 113.525 40.875 116.275 40.875 119.3C40.875 121.7 39.775 124.125 36.45 124.8L41.75 130.775ZM34.575 116.575H29.55V122.175H34.575C36.675 122.175 37.575 120.775 37.575 119.375C37.575 117.975 36.65 116.575 34.575 116.575ZM55.0951 125.925H45.4701C45.6701 127.45 46.9951 128.55 49.1451 128.55C50.2701 128.55 51.7451 128.125 52.4451 127.4L54.3951 129.325C53.0951 130.675 50.9701 131.325 49.0951 131.325C44.8451 131.325 42.3201 128.7 42.3201 124.75C42.3201 121 44.8701 118.3 48.8701 118.3C52.9951 118.3 55.5701 120.85 55.0951 125.925ZM45.5201 123.4H52.1701C51.9701 121.8 50.7201 121 48.9701 121C47.3201 121 45.9701 121.8 45.5201 123.4ZM67.1203 120.375L67.2203 118.675H70.1453V131H67.2703L67.1203 129.2C66.4203 130.65 64.4953 131.35 63.1203 131.375C59.4703 131.4 56.7703 129.15 56.7703 124.825C56.7703 120.575 59.5953 118.35 63.1953 118.375C64.8453 118.375 66.4203 119.15 67.1203 120.375ZM63.4703 121.1C61.4453 121.1 59.8203 122.475 59.8203 124.825C59.8203 127.175 61.4453 128.575 63.4703 128.575C68.2703 128.575 68.2703 121.1 63.4703 121.1ZM81.5221 127.425L83.5721 129.425C82.1471 130.825 80.6471 131.375 78.8221 131.375C75.2471 131.375 72.2721 129.225 72.2721 124.85C72.2721 120.475 75.2471 118.325 78.8221 118.325C80.5721 118.325 81.9221 118.825 83.2721 120.15L81.3471 122.175C80.6221 121.525 79.7221 121.2 78.8721 121.2C76.8221 121.2 75.3221 122.7 75.3221 124.85C75.3221 127.2 76.9221 128.45 78.8221 128.45C79.7971 128.45 80.7721 128.175 81.5221 127.425ZM86.1611 115.525L89.2111 115.2V118.7H92.6111V121.325H89.1861V126.65C89.1861 127.825 89.8361 128.4 90.7861 128.4C91.2611 128.4 91.8111 128.25 92.2611 128.025L93.1111 130.625C92.2361 130.975 91.5111 131.125 90.5861 131.15C87.9111 131.25 86.1611 129.725 86.1611 126.65V121.325H83.8611V118.7H86.1611V115.525ZM115.7 130.775V131H111.775L106.675 125.15H103.5V131H100.2V113.475C102.975 113.475 105.75 113.5 108.525 113.5C112.65 113.525 114.825 116.275 114.825 119.3C114.825 121.7 113.725 124.125 110.4 124.8L115.7 130.775ZM108.525 116.575H103.5V122.175H108.525C110.625 122.175 111.525 120.775 111.525 119.375C111.525 117.975 110.6 116.575 108.525 116.575ZM122.62 118.425C126.545 118.425 129.07 121.325 129.07 124.85C129.07 128.4 126.645 131.275 122.645 131.275C118.645 131.275 116.245 128.4 116.245 124.85C116.245 121.325 118.695 118.425 122.62 118.425ZM122.645 121.2C120.445 121.2 119.295 123 119.295 124.85C119.295 126.725 120.42 128.475 122.645 128.475C124.87 128.475 125.995 126.725 125.995 124.85C125.995 123 124.695 121.2 122.645 121.2ZM131.251 118.675H134.301V125.125C134.301 127 135.326 128.425 137.276 128.425C139.151 128.425 140.426 126.85 140.426 124.975V118.675H143.451V131.025H140.726L140.526 129.35C139.251 130.6 138.076 131.2 136.351 131.2C133.401 131.2 131.251 128.975 131.251 125.15V118.675ZM147.392 115.525L150.442 115.2V118.7H153.842V121.325H150.417V126.65C150.417 127.825 151.067 128.4 152.017 128.4C152.492 128.4 153.042 128.25 153.492 128.025L154.342 130.625C153.467 130.975 152.742 131.125 151.817 131.15C149.142 131.25 147.392 129.725 147.392 126.65V121.325H145.092V118.7H147.392V115.525ZM168.352 125.925H158.727C158.927 127.45 160.252 128.55 162.402 128.55C163.527 128.55 165.002 128.125 165.702 127.4L167.652 129.325C166.352 130.675 164.227 131.325 162.352 131.325C158.102 131.325 155.577 128.7 155.577 124.75C155.577 121 158.127 118.3 162.127 118.3C166.252 118.3 168.827 120.85 168.352 125.925ZM158.777 123.4H165.427C165.227 121.8 163.977 121 162.227 121C160.577 121 159.227 121.8 158.777 123.4ZM170.702 118.675H173.527L173.752 120.1C174.702 118.575 175.977 118.35 177.227 118.35C178.502 118.35 179.727 118.85 180.402 119.525L179.027 122.175C178.402 121.65 177.827 121.375 176.827 121.375C175.227 121.375 173.752 122.225 173.752 124.5V131H170.702V118.675Z" fill="white" fill-opacity="0.53"/>
<rect x="239" y="1" width="204" height="178" rx="11" fill="white" fill-opacity="0.06"/>
<rect x="239" y="1" width="204" height="178" rx="11" stroke="#565656" stroke-width="2"/>
<path d="M341 92C327.193 92 316 80.8075 316 67C316 53.1925 327.193 42 341 42C354.807 42 366 53.1925 366 67C366 80.8075 354.807 92 341 92ZM351 57H347.625V67H351V57ZM334.365 61.275L349.513 80.845L352.147 78.8225L335.207 57H331V76.9925H334.365V61.275Z" fill="#DBDBDB"/>
<path d="M324.725 130.35V119.475H328.025V137H325.975V137.025L316.775 125.2V137H313.475V119.5H316.15L324.725 130.35ZM343.047 131.925H333.422C333.622 133.45 334.947 134.55 337.097 134.55C338.222 134.55 339.697 134.125 340.397 133.4L342.347 135.325C341.047 136.675 338.922 137.325 337.047 137.325C332.797 137.325 330.272 134.7 330.272 130.75C330.272 127 332.822 124.3 336.822 124.3C340.947 124.3 343.522 126.85 343.047 131.925ZM333.472 129.4H340.122C339.922 127.8 338.672 127 336.922 127C335.272 127 333.922 127.8 333.472 129.4ZM350.578 128.85L353.003 124.675H356.653V124.775L352.603 130.75L356.903 136.925V137H353.253L350.578 132.875L347.903 137H344.253V136.925L348.553 130.75L344.503 124.775V124.675H348.153L350.578 128.85ZM359.709 121.525L362.759 121.2V124.7H366.159V127.325H362.734V132.65C362.734 133.825 363.384 134.4 364.334 134.4C364.809 134.4 365.359 134.25 365.809 134.025L366.659 136.625C365.784 136.975 365.059 137.125 364.134 137.15C361.459 137.25 359.709 135.725 359.709 132.65V127.325H357.409V124.7H359.709V121.525Z" fill="white" fill-opacity="0.53"/>
<rect x="477" y="1" width="204" height="178" rx="11" fill="white" fill-opacity="0.06"/>
<rect x="477" y="1" width="204" height="178" rx="11" stroke="#565656" stroke-width="2"/>
<g clip-path="url(#clip1_1_151)">
<path d="M600.628 70.9017C598.541 70.9125 596.727 71.4153 595.208 72.1585C594.65 71.0546 594.093 70.0711 593.995 69.3497C593.885 68.5083 593.754 67.9945 593.885 66.9891C594.016 65.9836 594.607 64.5518 594.596 64.4426C594.585 64.3334 594.464 63.8196 593.262 63.8088C592.06 63.7981 591.022 64.0383 590.902 64.3552C590.781 64.6721 590.552 65.3935 590.399 66.1364C590.191 67.2295 587.995 71.131 586.738 73.1747C586.333 72.3771 585.984 71.6775 585.907 71.1202C585.798 70.2788 585.667 69.765 585.798 68.7596C585.929 67.7541 586.519 66.3225 586.508 66.2131C586.497 66.1038 586.377 65.5901 585.175 65.5793C583.972 65.5683 582.934 65.8088 582.814 66.1256C582.694 66.4428 582.563 67.1857 582.311 67.9071C582.06 68.6285 579.142 75.1423 578.377 76.8251C578.068 77.5062 577.744 78.1804 577.404 78.847C577.404 78.847 577.393 78.8799 577.361 78.9345C577.254 79.1435 577.145 79.3512 577.033 79.5574V79.5682C576.869 79.8635 576.694 80.1366 576.607 80.1366C576.541 80.1366 576.421 79.3498 576.628 78.2787C577.065 76.0165 578.104 72.4974 578.093 72.3771C578.093 72.3115 578.29 71.6996 577.415 71.3824C576.563 71.0656 576.257 71.5901 576.18 71.5901C576.104 71.5901 576.049 71.776 576.049 71.776C576.049 71.776 577 67.8197 574.235 67.8197C572.508 67.8197 570.126 69.7104 568.945 71.4153C567.604 72.1454 566.263 72.8777 564.923 73.6121C564.279 73.9728 563.612 74.3335 562.989 74.6721C562.945 74.6285 562.902 74.5737 562.858 74.5301C559.514 70.9563 553.328 68.4317 553.59 63.634C553.689 61.8853 554.29 57.2951 565.47 51.7214C574.672 47.1858 581.995 48.4425 583.262 51.2295C585.076 55.2078 579.339 62.5957 569.831 63.6666C566.202 64.0711 564.3 62.6721 563.82 62.1476C563.317 61.601 563.24 61.5682 563.055 61.6777C562.749 61.8417 562.945 62.3335 563.055 62.6175C563.339 63.3605 564.508 64.672 566.486 65.317C568.235 65.8852 572.486 66.2023 577.634 64.2131C583.393 61.9835 587.896 55.7869 586.574 50.5957C585.251 45.3279 576.508 43.5903 568.235 46.53C563.317 48.2789 557.984 51.0328 554.148 54.6176C549.59 58.8797 548.869 62.5847 549.164 64.1367C550.224 69.6448 557.82 73.2295 560.858 75.8853C560.705 75.9727 560.563 76.0493 560.443 76.1149C558.923 76.8689 553.131 79.8961 551.689 83.0984C550.049 86.7267 551.951 89.3281 553.208 89.6775C557.109 90.7596 561.12 88.8143 563.273 85.601C565.426 82.388 565.164 78.2131 564.169 76.3006C564.158 76.2788 564.148 76.2567 564.126 76.2349C564.519 76.0055 564.923 75.765 565.317 75.5356C566.04 75.108 566.773 74.6962 567.514 74.3004C567.142 75.3169 566.869 76.53 566.738 78.2787C566.574 80.3335 567.415 82.9999 568.519 84.049C569.011 84.5084 569.59 84.5192 569.962 84.5192C571.251 84.5192 571.831 83.4481 572.475 82.1803C573.262 80.6285 573.973 78.8253 573.973 78.8253C573.973 78.8253 573.087 83.6995 575.492 83.6995C576.366 83.6995 577.251 82.5628 577.645 81.9837V81.9945C577.645 81.9945 577.667 81.9617 577.71 81.8853C577.798 81.7432 577.852 81.6556 577.852 81.6556V81.634C578.202 81.0218 578.989 79.6338 580.159 77.3278C581.667 74.3553 583.12 70.6395 583.12 70.6395C583.12 70.6395 583.252 71.5465 583.699 73.0547C583.962 73.9399 584.508 74.9126 584.945 75.8524C584.596 76.3444 584.377 76.6174 584.377 76.6174L584.388 76.6285C584.104 76.9999 583.798 77.4042 583.459 77.798C582.268 79.2185 580.847 80.8472 580.65 81.3169C580.421 81.8742 580.475 82.2788 580.913 82.6067C581.23 82.8471 581.798 82.8797 582.377 82.8471C583.448 82.7705 584.202 82.5082 584.574 82.3444C585.153 82.1367 585.831 81.8196 586.464 81.3497C587.634 80.4863 588.344 79.2513 588.279 77.6231C588.246 76.7269 587.951 75.8306 587.59 74.989C587.7 74.8362 587.798 74.6831 587.907 74.5301C589.754 71.8306 591.186 68.8688 591.186 68.8688C591.186 68.8688 591.317 69.7758 591.765 71.2842C591.984 72.0492 592.432 72.8799 592.825 73.6885C591.087 75.0985 590.016 76.7377 589.634 77.8088C588.945 79.7979 589.481 80.6939 590.497 80.9016C590.956 81 591.612 80.7813 592.093 80.5737C592.705 80.377 593.426 80.0384 594.115 79.5354C595.284 78.6722 596.41 77.4699 596.344 75.8417C596.311 75.0985 596.115 74.366 595.841 73.6556C597.317 73.0439 599.219 72.705 601.645 72.9891C606.847 73.601 607.874 76.8469 607.677 78.2133C607.481 79.5792 606.388 80.3224 606.027 80.5519C605.666 80.7816 605.546 80.858 605.579 81.0218C605.623 81.2623 605.798 81.2515 606.104 81.2077C606.53 81.1313 608.836 80.1038 608.934 77.5901C609.098 74.377 606.038 70.8689 600.628 70.9017ZM560.497 84.4317C558.77 86.3114 556.366 87.0218 555.328 86.4209C554.213 85.7759 554.65 82.9999 556.77 81.011C558.06 79.7979 559.721 78.672 560.825 77.9836C561.076 77.8306 561.448 77.6121 561.896 77.3388C561.973 77.295 562.016 77.2732 562.016 77.2732L562.279 77.1092C563.055 79.9507 562.312 82.4536 560.497 84.4317ZM573.066 75.8853C572.464 77.3499 571.208 81.0985 570.443 80.8908C569.787 80.716 569.382 77.8744 570.311 75.0656C570.781 73.6556 571.776 71.9726 572.355 71.3171C573.295 70.2678 574.333 69.9178 574.585 70.3444C574.902 70.9017 573.437 74.9672 573.066 75.8853ZM583.437 80.847C583.186 80.9782 582.945 81.0656 582.836 81C582.76 80.9562 582.945 80.7813 582.945 80.7813C582.945 80.7813 584.246 79.3826 584.76 78.7486C585.055 78.3771 585.404 77.94 585.776 77.4481V77.5901C585.776 79.2624 584.158 80.3881 583.437 80.847M591.437 79.0219C591.251 78.8906 591.284 78.4535 591.907 77.0874C592.147 76.5518 592.715 75.6558 593.688 74.7924C593.798 75.142 593.874 75.481 593.863 75.7978C593.852 77.9072 592.344 78.694 591.437 79.0219Z" fill="#CD6799"/>
</g>
<path d="M564.65 120.375L562.025 121.725C561.425 120.725 559.775 119.775 557.875 119.775C555.425 119.775 554.25 120.8 554.25 122.1C554.25 123.625 556.05 124.05 558.15 124.3C561.8 124.75 565.2 125.7 565.2 129.875C565.2 133.775 561.75 135.45 557.85 135.45C554.275 135.45 551.525 134.35 550.225 131.15L552.975 129.725C553.75 131.65 555.775 132.5 557.9 132.5C559.975 132.5 561.925 131.775 561.925 129.875C561.925 128.225 560.2 127.55 557.875 127.3C554.3 126.875 551 125.925 551 122C551 118.4 554.55 116.925 557.775 116.9C560.5 116.9 563.325 117.675 564.65 120.375ZM578.009 124.375L578.109 122.675H581.034V135H578.159L578.009 133.2C577.309 134.65 575.384 135.35 574.009 135.375C570.359 135.4 567.659 133.15 567.659 128.825C567.659 124.575 570.484 122.35 574.084 122.375C575.734 122.375 577.309 123.15 578.009 124.375ZM574.359 125.1C572.334 125.1 570.709 126.475 570.709 128.825C570.709 131.175 572.334 132.575 574.359 132.575C579.159 132.575 579.159 125.1 574.359 125.1ZM593.367 123.95L591.667 125.95C590.792 125.125 589.792 124.85 588.617 124.85C587.167 124.85 586.367 125.3 586.367 126.075C586.367 126.875 587.092 127.325 588.667 127.425C590.992 127.575 593.942 128.1 593.942 131.375C593.942 133.55 592.167 135.425 588.642 135.425C586.692 135.425 584.742 135.1 582.942 133.225L584.442 131.05C585.317 132.025 587.317 132.75 588.692 132.775C589.842 132.8 590.917 132.2 590.917 131.3C590.917 130.45 590.217 130.1 588.467 130C586.142 129.825 583.367 128.975 583.367 126.175C583.367 123.325 586.317 122.325 588.567 122.325C590.492 122.325 591.942 122.7 593.367 123.95ZM605.647 123.95L603.947 125.95C603.072 125.125 602.072 124.85 600.897 124.85C599.447 124.85 598.647 125.3 598.647 126.075C598.647 126.875 599.372 127.325 600.947 127.425C603.272 127.575 606.222 128.1 606.222 131.375C606.222 133.55 604.447 135.425 600.922 135.425C598.972 135.425 597.022 135.1 595.222 133.225L596.722 131.05C597.597 132.025 599.597 132.75 600.972 132.775C602.122 132.8 603.197 132.2 603.197 131.3C603.197 130.45 602.497 130.1 600.747 130C598.422 129.825 595.647 128.975 595.647 126.175C595.647 123.325 598.597 122.325 600.847 122.325C602.772 122.325 604.222 122.7 605.647 123.95Z" fill="white" fill-opacity="0.53"/>
<rect x="715" y="1" width="204" height="178" rx="11" fill="white" fill-opacity="0.06"/>
<rect x="715" y="1" width="204" height="178" rx="11" stroke="#565656" stroke-width="2"/>
<g clip-path="url(#clip2_1_151)">
<path d="M814.477 48.2526L788.254 74.4529C787.919 74.787 787.653 75.1839 787.471 75.6211C787.29 76.0582 787.196 76.5268 787.196 77.0001C787.196 77.4735 787.29 77.9421 787.471 78.3792C787.653 78.8163 787.919 79.2133 788.254 79.5473L814.477 105.748C814.811 106.082 815.208 106.348 815.646 106.529C816.083 106.71 816.551 106.804 817.025 106.804C817.498 106.804 817.966 106.71 818.404 106.529C818.841 106.348 819.238 106.082 819.573 105.748L830.568 94.7615C830.868 94.4616 831.106 94.1055 831.268 93.7136C831.431 93.3217 831.514 92.9016 831.514 92.4773C831.514 92.0531 831.431 91.633 831.268 91.2411C831.106 90.8491 830.868 90.493 830.568 90.1931C829.961 89.5871 829.139 89.2467 828.282 89.2467C827.425 89.2467 826.602 89.5871 825.996 90.1931L817.661 98.5204C817.31 98.872 816.776 98.872 816.427 98.5204L795.485 77.5987C795.135 77.2472 795.135 76.7147 795.485 76.365L816.427 55.4414C816.776 55.0917 817.309 55.0917 817.661 55.4414L825.996 63.7687C826.602 64.3747 827.425 64.7151 828.282 64.7151C829.139 64.7151 829.961 64.3747 830.568 63.7687C830.868 63.4688 831.106 63.1127 831.268 62.7208C831.431 62.3288 831.514 61.9088 831.514 61.4845C831.514 61.0603 831.431 60.6402 831.268 60.2482C831.106 59.8563 830.868 59.5002 830.568 59.2003L819.574 48.2161C818.159 46.8389 815.881 46.8501 814.477 48.2526Z" fill="url(#paint0_linear_1_151)"/>
<path d="M814.477 48.2526L788.254 74.4529C787.919 74.787 787.653 75.1839 787.471 75.6211C787.29 76.0582 787.196 76.5268 787.196 77.0001C787.196 77.4735 787.29 77.9421 787.471 78.3792C787.653 78.8163 787.919 79.2133 788.254 79.5473L814.477 105.748C814.811 106.082 815.208 106.348 815.646 106.529C816.083 106.71 816.551 106.804 817.025 106.804C817.498 106.804 817.966 106.71 818.404 106.529C818.841 106.348 819.238 106.082 819.573 105.748L830.568 94.7615C830.868 94.4616 831.106 94.1055 831.268 93.7136C831.431 93.3217 831.514 92.9016 831.514 92.4773C831.514 92.0531 831.431 91.633 831.268 91.2411C831.106 90.8491 830.868 90.493 830.568 90.1931C829.961 89.5871 829.139 89.2467 828.282 89.2467C827.425 89.2467 826.602 89.5871 825.996 90.1931L817.661 98.5204C817.31 98.872 816.776 98.872 816.427 98.5204L795.485 77.5987C795.135 77.2472 795.135 76.7147 795.485 76.365L816.427 55.4414C817.3 54.6886 818.725 53.1633 820.819 52.8065C822.375 52.5412 824.075 53.1247 825.921 54.5569C824.687 53.3231 822.572 51.2095 819.574 48.2161C818.159 46.8389 815.881 46.8501 814.477 48.2526Z" fill="url(#paint1_linear_1_151)"/>
<path d="M833.106 87.7555C833.713 88.3613 834.535 88.7016 835.392 88.7016C836.249 88.7016 837.072 88.3613 837.678 87.7555L845.788 79.6531C846.123 79.3192 846.389 78.9224 846.57 78.4855C846.752 78.0486 846.845 77.5802 846.845 77.1071C846.845 76.634 846.752 76.1656 846.57 75.7287C846.389 75.2918 846.123 74.895 845.788 74.5611L837.607 66.4147C836.999 65.8095 836.175 65.4701 835.318 65.4712C834.46 65.4722 833.637 65.8136 833.031 66.4203C832.73 66.72 832.492 67.0761 832.329 67.468C832.167 67.86 832.083 68.2802 832.083 68.7045C832.083 69.1289 832.167 69.5491 832.329 69.941C832.492 70.333 832.73 70.689 833.031 70.9888L838.557 76.5092C838.64 76.5891 838.706 76.6848 838.751 76.7906C838.796 76.8965 838.819 77.0104 838.819 77.1254C838.819 77.2404 838.796 77.3543 838.751 77.4601C838.706 77.566 838.64 77.6617 838.557 77.7416L833.106 83.1889C832.805 83.4885 832.567 83.8444 832.405 84.2362C832.242 84.628 832.158 85.048 832.158 85.4722C832.158 85.8964 832.242 86.3164 832.405 86.7082C832.567 87.1 832.806 87.4559 833.106 87.7555Z" fill="url(#paint2_linear_1_151)"/>
<path fill-rule="evenodd" clip-rule="evenodd" d="M824.237 77.132C824.237 73.2245 821.067 70.0566 817.156 70.0566C813.246 70.0566 810.075 73.2245 810.075 77.132C810.075 81.0376 813.246 84.2054 817.156 84.2054C821.067 84.2054 824.237 81.0376 824.237 77.132Z" fill="url(#paint3_linear_1_151)"/>
</g>
<path d="M768.125 141L766.65 137.7H757.5L756 141H752.425L760.275 123.5H763.875L771.725 141H768.125ZM765.325 134.625L762.075 127.175L758.825 134.625H765.325ZM784.851 141H781.801V134.55C781.801 132.675 780.776 131.25 778.826 131.25C776.951 131.25 775.676 132.825 775.676 134.7V141H772.651V128.65H775.376L775.576 130.325C776.826 129.1 778.076 128.475 779.626 128.475C782.526 128.475 784.851 130.65 784.851 134.525V141ZM788.185 125.525L791.235 125.2V128.7H794.635V131.325H791.21V136.65C791.21 137.825 791.86 138.4 792.81 138.4C793.285 138.4 793.835 138.25 794.285 138.025L795.135 140.625C794.26 140.975 793.535 141.125 792.61 141.15C789.935 141.25 788.185 139.725 788.185 136.65V131.325H785.885V128.7H788.185V125.525ZM808.849 123.5C814.849 123.5 817.524 127.775 817.599 132.1C817.674 136.525 814.974 141 808.849 141C806.699 141 804.124 141 801.974 141V123.5C804.124 123.5 806.699 123.5 808.849 123.5ZM805.249 126.625V137.825H808.849C812.824 137.825 814.399 134.925 814.324 132.075C814.249 129.35 812.649 126.625 808.849 126.625H805.249ZM832.314 135.925H822.689C822.889 137.45 824.214 138.55 826.364 138.55C827.489 138.55 828.964 138.125 829.664 137.4L831.614 139.325C830.314 140.675 828.189 141.325 826.314 141.325C822.064 141.325 819.539 138.7 819.539 134.75C819.539 131 822.089 128.3 826.089 128.3C830.214 128.3 832.789 130.85 832.314 135.925ZM822.739 133.4H829.389C829.189 131.8 827.939 131 826.189 131C824.539 131 823.189 131.8 822.739 133.4ZM844.414 129.95L842.714 131.95C841.839 131.125 840.839 130.85 839.664 130.85C838.214 130.85 837.414 131.3 837.414 132.075C837.414 132.875 838.139 133.325 839.714 133.425C842.039 133.575 844.989 134.1 844.989 137.375C844.989 139.55 843.214 141.425 839.689 141.425C837.739 141.425 835.789 141.1 833.989 139.225L835.489 137.05C836.364 138.025 838.364 138.75 839.739 138.775C840.889 138.8 841.964 138.2 841.964 137.3C841.964 136.45 841.264 136.1 839.514 136C837.189 135.825 834.414 134.975 834.414 132.175C834.414 129.325 837.364 128.325 839.614 128.325C841.539 128.325 842.989 128.7 844.414 129.95ZM849.994 128.625V141H846.944V128.625H849.994ZM846.669 125.2C846.669 127.575 850.269 127.575 850.269 125.2C850.269 122.825 846.669 122.825 846.669 125.2ZM861.205 128.975L862.43 127.425L864.68 129.125L863.305 130.875C864.255 131.95 864.605 133.175 864.605 134.525C864.605 136.05 864.03 138.2 862.005 139.125C864.055 140.15 864.555 141.625 864.555 143.2C864.555 146.6 861.955 148.7 858.38 148.7C854.805 148.7 852.13 146.525 852.13 143.2H855.155C855.155 144.8 856.63 145.85 858.38 145.85C860.13 145.85 861.505 144.9 861.505 143.2C861.505 141.5 859.905 140.725 858.38 140.725C854.53 140.725 852.13 138.375 852.13 134.525C852.13 130.675 854.93 128.275 858.38 128.275C859.355 128.275 860.355 128.4 861.205 128.975ZM858.38 131.05C856.605 131.05 855.155 132.375 855.155 134.525C855.155 136.675 856.605 137.95 858.38 137.95C860.13 137.95 861.58 136.65 861.58 134.525C861.58 132.4 860.13 131.05 858.38 131.05ZM878.674 141H875.624V134.55C875.624 132.675 874.599 131.25 872.649 131.25C870.774 131.25 869.499 132.825 869.499 134.7V141H866.474V128.65H869.199L869.399 130.325C870.649 129.1 871.899 128.475 873.449 128.475C876.349 128.475 878.674 130.65 878.674 134.525V141Z" fill="white" fill-opacity="0.53"/>
<defs>
<linearGradient id="paint0_linear_1_151" x1="814.717" y1="47.1904" x2="839.644" y2="62.4256" gradientUnits="userSpaceOnUse">
<stop stop-color="#4285EB"/>
<stop offset="1" stop-color="#2EC7FF"/>
</linearGradient>
<linearGradient id="paint1_linear_1_151" x1="818.041" y1="47.1904" x2="805.733" y2="110.826" gradientUnits="userSpaceOnUse">
<stop stop-color="#29CDFF"/>
<stop offset="0.379" stop-color="#148EFF"/>
<stop offset="1" stop-color="#0A60FF"/>
</linearGradient>
<linearGradient id="paint2_linear_1_151" x1="842.372" y1="62.4497" x2="826.35" y2="87.499" gradientUnits="userSpaceOnUse">
<stop stop-color="#FA816E"/>
<stop offset="0.415" stop-color="#F74A5C"/>
<stop offset="1" stop-color="#F51D2C"/>
</linearGradient>
<linearGradient id="paint3_linear_1_151" x1="819.719" y1="65.0061" x2="814.389" y2="86.3161" gradientUnits="userSpaceOnUse">
<stop stop-color="#FA8E7D"/>
<stop offset="0.513" stop-color="#F74A5C"/>
<stop offset="1" stop-color="#F51D2C"/>
</linearGradient>
<clipPath id="clip0_1_151">
<rect width="60" height="60" fill="white" transform="translate(73 30)"/>
</clipPath>
<clipPath id="clip1_1_151">
<rect width="60" height="45" fill="white" transform="translate(549 45)"/>
</clipPath>
<clipPath id="clip2_1_151">
<rect width="60" height="60" fill="white" transform="translate(787 47)"/>
</clipPath>
</defs>
</svg>
