<svg width="60" height="58" viewBox="0 0 60 58" fill="none" xmlns="http://www.w3.org/2000/svg">
<g clip-path="url(#clip0_8_123)">
<path d="M41.5692 39.7659C43.7825 39.5368 45.4617 37.6287 45.3853 35.3388C45.3091 33.0492 43.4009 31.2173 41.1112 31.2173H40.9587C38.5924 31.2937 36.7608 33.2781 36.8372 35.6441C36.9135 36.7891 37.3713 37.7813 38.0582 38.4682C35.4633 43.5822 31.4945 47.3221 25.5413 50.4514C21.4962 52.5885 17.2985 53.3518 13.1008 52.8177C9.66618 52.3596 6.99487 50.8333 5.31551 48.3143C2.87332 44.5744 2.64443 40.529 4.7052 36.4838C6.15542 33.5833 8.44486 31.4462 9.89508 30.3776C9.58981 29.3854 9.13178 27.7063 8.90288 26.4852C-2.16404 34.4994 -1.01909 45.3377 2.33915 50.4514C4.85772 54.2679 9.97146 56.6339 15.6194 56.6339C17.1457 56.6339 18.6721 56.4812 20.1987 56.0998C29.9682 54.1915 37.3716 48.3906 41.5692 39.7659ZM55.0022 30.3015C49.2015 23.5084 40.6534 19.7685 30.884 19.7685H29.6629C28.976 18.3947 27.5257 17.4786 25.923 17.4786H25.7702C23.4044 17.555 21.5728 19.5394 21.6489 21.9056C21.7253 24.1953 23.6333 26.0272 25.923 26.0272H26.0755C27.7546 25.9508 29.2048 24.8822 29.8154 23.432H31.1892C36.9899 23.432 42.4851 25.1111 47.4463 28.3932C51.2623 30.912 54.01 34.1941 55.5364 38.1629C56.8338 41.3686 56.7575 44.498 55.3836 47.1695C53.2467 51.2147 49.6596 53.4282 44.9275 53.4282C41.8745 53.4282 38.9743 52.5122 37.4477 51.8252C36.6083 52.5885 35.0817 53.8096 34.0131 54.5732C37.2952 56.0995 40.6534 56.9392 43.8589 56.9392C51.1859 56.9392 56.605 52.8938 58.6657 48.8487C60.879 44.4216 60.7263 36.7891 55.0022 30.3015ZM16.2299 41.0631C16.3063 43.353 18.2143 45.1847 20.504 45.1847H20.6567C23.0228 45.1085 24.8544 43.1239 24.778 40.7579C24.7019 38.468 22.7936 36.6363 20.504 36.6363H20.3515C20.1987 36.6363 19.9696 36.6363 19.8173 36.7125C16.6879 31.5223 15.3905 25.8744 15.8485 19.7683C16.1535 15.1887 17.6801 11.2197 20.3515 7.93758C22.5647 5.1135 26.8388 3.73966 29.7393 3.66351C37.8293 3.51076 41.2637 13.5857 41.4929 17.6311C42.4851 17.86 44.1642 18.3944 45.3091 18.7761C44.3931 6.41144 36.7608 0 29.434 0C22.5647 0 16.2299 4.96122 13.7111 12.2885C10.2004 22.0582 12.49 31.4462 16.7641 38.8498C16.3827 39.384 16.1535 40.2235 16.2299 41.0631Z" fill="#764ABC"/>
</g>
<defs>
<clipPath id="clip0_8_123">
<rect width="60" height="57.1655" fill="white"/>
</clipPath>
</defs>
</svg>
