<svg width="60" height="60" viewBox="0 0 60 60" fill="none" xmlns="http://www.w3.org/2000/svg">
<g clip-path="url(#clip0_8_125)">
<path d="M55.5475 29.4599L29.46 55.5474C29.0104 56.0445 28.769 56.6953 28.7858 57.3654C28.8026 58.0354 29.0762 58.6733 29.5501 59.1473C30.0241 59.6212 30.662 59.8948 31.332 59.9116C32.0021 59.9284 32.6529 59.687 33.15 59.2374L59.2375 33.1499C59.6871 32.6529 59.9285 32.002 59.9117 31.332C59.8949 30.662 59.6212 30.024 59.1473 29.5501C58.6734 29.0762 58.0354 28.8025 57.3654 28.7857C56.6954 28.7689 56.0445 29.0103 55.5475 29.4599ZM50.33 0.76242L0.762481 50.3299C0.312874 50.827 0.0715009 51.4778 0.0882834 52.1479C0.105066 52.8179 0.37872 53.4558 0.852648 53.9298C1.32658 54.4037 1.96452 54.6773 2.63455 54.6941C3.30457 54.7109 3.95542 54.4695 4.45248 54.0199L54.02 4.45242C54.4696 3.95536 54.711 3.30451 54.6942 2.63449C54.6774 1.96446 54.4037 1.32651 53.9298 0.852587C53.4559 0.378659 52.8179 0.105005 52.1479 0.0882223C51.4779 0.0714399 50.827 0.312813 50.33 0.76242Z" fill="#E4DDDD"/>
</g>
<defs>
<clipPath id="clip0_8_125">
<rect width="60" height="60" fill="white"/>
</clipPath>
</defs>
</svg>
