<svg width="60" height="60" viewBox="0 0 60 60" fill="none" xmlns="http://www.w3.org/2000/svg">
<path d="M26.6275 0C25.6625 0.0475 23.5 0.68 21.46 1.6425C19.42 2.6175 12.22 7.045 12.08 17.9825C12.26 28.345 21.6975 45.96 28.0725 51.62C28.0725 51.62 17.72 34.24 16.975 19.0875C16.22 3.9375 26.6275 0 26.6275 0ZM33.325 0C33.325 0 43.7225 3.9375 42.9775 19.0875C42.23 34.24 31.88 51.62 31.88 51.62C38.2475 45.96 47.69 28.345 47.87 17.9825C47.7275 7.045 40.53 2.6175 38.49 1.6425C36.45 0.68 34.2875 0.0475 33.325 0ZM29.875 0.0475C29.3888 0.0427309 28.91 0.166951 28.4875 0.4075C24.66 2.475 22.2725 9.955 22.9425 21.65C23.405 29.755 25.465 39.8775 28.9975 51.62H30.7475C34.28 39.8775 36.3475 29.765 36.81 21.66C37.48 9.9675 35.09 2.475 31.2625 0.4075C30.84 0.166951 30.3612 0.0427309 29.875 0.0475ZM17.5425 2.665C17.5425 2.665 6.35751 7.2725 8.57751 20.5625C10.7875 33.8625 22.5475 48.05 26.0425 51.0625C27.3 52.205 11.6 34.6925 10.0775 19.315C9.35001 13.5075 11.0525 7.065 17.5425 2.665ZM42.4575 2.665C48.945 7.065 50.6475 13.5075 49.92 19.315C48.4 34.6925 32.7 52.205 33.955 51.0625C37.45 48.05 49.2125 33.8625 51.4225 20.5625C53.6425 7.2725 42.4575 2.665 42.4575 2.665ZM25.42 54.615L26.6175 60H33.115L34.335 54.615H25.42Z" fill="#E4DDDD"/>
</svg>
