<svg width="60" height="60" viewBox="0 0 60 60" fill="none" xmlns="http://www.w3.org/2000/svg">
<g clip-path="url(#clip0_8_91)">
<path d="M45.9375 0H14.0625C6.296 0 0 6.296 0 14.0625V45.9375C0 53.704 6.296 60 14.0625 60H45.9375C53.704 60 60 53.704 60 45.9375V14.0625C60 6.296 53.704 0 45.9375 0Z" fill="#007ACC"/>
<path d="M13.2682 30.1989L13.2492 32.6561H21.0586V54.8465H26.5826V32.6561H34.3919V30.2465C34.3919 28.9131 34.3636 27.7989 34.3254 27.7703C34.2968 27.7324 29.5444 27.7131 23.7825 27.7228L13.2968 27.7513L13.2682 30.1989ZM48.4141 27.6815C49.9378 28.0626 51.0998 28.7388 52.1665 29.8434C52.7189 30.434 53.5378 31.5103 53.6046 31.7674C53.6236 31.8435 51.014 33.596 49.4332 34.5768C49.376 34.615 49.1473 34.3673 48.8901 33.9864C48.1188 32.8626 47.3093 32.3767 46.0711 32.2912C44.2521 32.1672 43.0807 33.1197 43.0903 34.7102C43.0903 35.1768 43.1569 35.4529 43.3474 35.834C43.7473 36.6625 44.4902 37.1578 46.8237 38.1672C51.1188 40.015 52.9568 41.234 54.0998 42.9672C55.376 44.9006 55.6617 47.9863 54.795 50.2816C53.8427 52.7767 51.4807 54.472 48.1568 55.034C47.1283 55.2149 44.6901 55.1863 43.5855 54.9864C41.1759 54.5578 38.8903 53.3674 37.4808 51.8055C36.9283 51.1959 35.8521 49.6054 35.9189 49.491C35.9473 49.4531 36.195 49.3007 36.4711 49.1388C36.7378 48.9864 37.7475 48.4054 38.6998 47.853L40.4236 46.8529L40.7855 47.3863C41.2903 48.1577 42.3949 49.2149 43.0617 49.5672C44.9758 50.5769 47.6046 50.4339 48.8998 49.2721C49.4522 48.7673 49.6807 48.2435 49.6807 47.4721C49.6807 46.7767 49.5949 46.472 49.233 45.9482C48.7664 45.2817 47.8141 44.7196 45.1092 43.5482C42.0141 42.2149 40.6807 41.3863 39.4617 40.072C38.7569 39.3103 38.0901 38.091 37.814 37.072C37.5855 36.2245 37.5283 34.1006 37.7093 33.2435C38.3473 30.2531 40.6045 28.1674 43.8616 27.5481C44.9189 27.3482 47.3758 27.4244 48.4141 27.6815Z" fill="white"/>
</g>
<defs>
<clipPath id="clip0_8_91">
<rect width="60" height="60" fill="white"/>
</clipPath>
</defs>
</svg>
