<svg width="60" height="54" viewBox="0 0 60 54" fill="none" xmlns="http://www.w3.org/2000/svg">
<path d="M49.332 17.3025C48.6934 17.0834 48.0494 16.8805 47.4007 16.6938C47.5097 16.2485 47.61 15.8086 47.6991 15.3764C49.1611 8.27926 48.2053 2.56168 44.9407 0.679178C41.8106 -1.12551 36.6916 0.756287 31.5218 5.25558C31.0123 5.69979 30.5141 6.15681 30.0277 6.62621C29.702 6.31409 29.3706 6.00802 29.0337 5.70816C23.6154 0.897381 18.1845 -1.1302 14.9234 0.757694C11.7961 2.56801 10.8701 7.94293 12.1863 14.669C12.3173 15.3352 12.4651 15.9979 12.6298 16.6565C11.861 16.875 11.1192 17.1075 10.4093 17.355C4.0568 19.5698 0 23.0407 0 26.6409C0 30.3593 4.35516 34.0889 10.9716 36.3504C11.508 36.5329 12.0489 36.7021 12.5937 36.8578C12.4168 37.5672 12.2597 38.2814 12.1226 38.9995C10.8677 45.6089 11.8477 50.8568 14.9665 52.6556C18.1877 54.5132 23.5943 52.604 28.8586 48.0021C29.2854 47.6279 29.7029 47.2432 30.1106 46.8482C30.6374 47.3565 31.1782 47.85 31.7325 48.3281C36.832 52.7161 41.8683 54.4879 44.9841 52.6842C48.2023 50.8211 49.2483 45.1835 47.8903 38.3245C47.7833 37.7871 47.6634 37.2525 47.5305 36.7209C47.9102 36.6084 48.2829 36.4926 48.6462 36.3722C55.5246 34.0933 60 30.4089 60 26.6409C60 23.0275 55.8122 19.5332 49.332 17.3025ZM47.8402 33.9393C47.5117 34.0478 47.1758 34.1529 46.8323 34.2546C46.073 31.8506 45.0483 29.2945 43.7941 26.6533C44.9909 24.0752 45.9762 21.5517 46.7142 19.1634C47.328 19.3411 47.9236 19.5283 48.4978 19.7259C54.0502 21.6375 57.4369 24.4633 57.4369 26.6409C57.4369 28.9603 53.7792 31.9713 47.8402 33.9393ZM45.3759 38.8223C45.9764 41.8551 46.062 44.5973 45.6642 46.7411C45.307 48.6675 44.5884 49.9516 43.6997 50.4661C41.809 51.5606 37.7653 50.1379 33.4043 46.3851C32.8888 45.9406 32.3857 45.4818 31.8956 45.0093C33.5864 43.1604 35.276 41.0109 36.9251 38.6236C39.8257 38.3662 42.566 37.9453 45.0511 37.3708C45.1738 37.8649 45.282 38.3487 45.3759 38.8223ZM20.4553 50.2769C18.608 50.9292 17.1366 50.9479 16.2471 50.4351C14.3545 49.3436 13.5677 45.1298 14.6409 39.4776C14.7685 38.8097 14.9146 38.1455 15.079 37.4857C17.5366 38.0294 20.257 38.4204 23.1645 38.6561C24.8248 40.9921 26.5631 43.1393 28.3151 45.0194C27.9427 45.3797 27.5616 45.7307 27.172 46.0722C24.844 48.1071 22.5112 49.5508 20.4553 50.2769ZM11.8008 33.925C8.87508 32.925 6.45891 31.6254 4.80281 30.2072C3.31453 28.9329 2.56336 27.6675 2.56336 26.6409C2.56336 24.4561 5.82047 21.6693 11.253 19.7754C11.9123 19.5457 12.6023 19.3289 13.3184 19.1254C14.0693 21.5676 15.0541 24.1211 16.2427 26.7032C15.0387 29.3236 14.0398 31.9179 13.2816 34.3889C12.7843 34.2464 12.2905 34.0917 11.8008 33.925ZM14.7019 14.1766C13.5743 8.41402 14.3231 4.06707 16.2077 2.97605C18.2149 1.81402 22.6535 3.47082 27.3319 7.62488C27.637 7.89637 27.9371 8.17336 28.2321 8.45574C26.4888 10.3277 24.7664 12.4589 23.1209 14.7811C20.299 15.0426 17.5978 15.4626 15.1144 16.0254C14.9613 15.4127 14.8238 14.7961 14.7019 14.1766ZM40.5832 20.5678C39.9966 19.5546 39.3883 18.5541 38.7586 17.5671C40.673 17.8092 42.5072 18.1305 44.2296 18.5233C43.7126 20.1808 43.068 21.9136 42.3094 23.6901C41.7548 22.6379 41.1793 21.597 40.5832 20.5678ZM30.0288 10.2879C31.211 11.5687 32.3951 12.9986 33.5597 14.5502C31.1972 14.4386 28.8307 14.4381 26.4682 14.5488C27.634 13.0115 28.8281 11.5835 30.0288 10.2879ZM19.4067 20.5851C18.818 21.606 18.2533 22.6405 17.7129 23.6878C16.9666 21.9175 16.328 20.1768 15.8065 18.4959C17.5184 18.1129 19.3439 17.7998 21.2461 17.5621C20.6094 18.5552 19.9961 19.5633 19.4067 20.5851ZM21.3007 35.9018C19.3355 35.6824 17.4825 35.3854 15.7711 35.0128C16.3008 33.3018 16.9535 31.5241 17.7159 29.7159C18.2585 30.7639 18.8256 31.7991 19.4168 32.8204C20.0248 33.8704 20.6543 34.8989 21.3007 35.9018ZM30.0996 43.1744C28.8846 41.8638 27.6729 40.4137 26.4895 38.8542C27.6384 38.8992 28.8096 38.9221 30 38.9221C31.223 38.9221 32.4319 38.8947 33.6218 38.8418C32.4534 40.4294 31.2738 41.8816 30.0996 43.1744ZM42.3335 29.6236C43.1355 31.4517 43.8115 33.22 44.3482 34.9017C42.6087 35.2987 40.7304 35.6184 38.7513 35.8558C39.3855 34.8505 39.9996 33.8326 40.5933 32.8029C41.1969 31.7561 41.7771 30.6961 42.3335 29.6236ZM38.373 31.5222C37.4641 33.101 36.5042 34.6499 35.4947 36.1664C33.666 36.296 31.8333 36.3603 30 36.3593C28.1327 36.3593 26.3166 36.3011 24.5677 36.1877C23.5317 34.6748 22.5535 33.1232 21.6349 31.5363C20.7206 29.9578 19.8668 28.3452 19.0751 26.7018C19.8649 25.0581 20.7162 23.4447 21.6274 21.865L21.6272 21.8653C22.5379 20.2851 23.5084 18.7402 24.5365 17.2338C26.3208 17.0988 28.1505 17.0285 29.9998 17.0285C31.8574 17.0285 33.6898 17.0995 35.4736 17.2354C36.4913 18.7396 37.4556 20.2792 38.3646 21.8514C39.2787 23.4277 40.1413 25.0332 40.9512 26.6655C40.1496 28.3145 39.2897 29.9344 38.373 31.5222ZM43.6605 2.89941C45.6696 4.05816 46.451 8.7309 45.1887 14.8586C45.1077 15.2499 45.0179 15.6475 44.9191 16.0516C42.4296 15.4769 39.7266 15.0496 36.8965 14.7841C35.2479 12.4364 33.5395 10.3019 31.8246 8.4541C32.2741 8.02087 32.7342 7.59887 33.2046 7.18848C37.6343 3.33371 41.7743 1.81168 43.6605 2.89941ZM30 21.2831C32.959 21.2831 35.3578 23.6819 35.3578 26.6409C35.3578 29.5999 32.959 31.9987 30 31.9987C27.041 31.9987 24.6422 29.5999 24.6422 26.6409C24.6422 23.6819 27.041 21.2831 30 21.2831Z" fill="#00D8FF"/>
</svg>
